<?xml version="1.0" encoding="UTF-8"?>
<svg width="38px" height="38px" viewBox="0 0 38 38" version="1.1" xmlns="http://www.w3.org/2000/svg" xmlns:xlink="http://www.w3.org/1999/xlink">
    <title>instagram</title>
    <g id="Page-1" stroke="none" stroke-width="1" fill="none" fill-rule="evenodd">
        <g id="Large-Devices:-Desktops---12-col" transform="translate(-527.000000, -2620.000000)" fill="#000000" fill-rule="nonzero">
            <g id="footer" transform="translate(-11.000000, 2322.000000)">
                <g id="instagram" transform="translate(538.000000, 298.000000)">
                    <path d="M19.0042403,9.25728065 C13.6126058,9.25728065 9.26369324,13.6071637 9.26369324,19 C9.26369324,24.3928376 13.6126058,28.7427194 19.0042403,28.7427194 C24.3958747,28.7427194 28.744786,24.3928376 28.744786,19 C28.744786,13.6071624 24.3958747,9.25728065 19.0042403,9.25728065 Z M19.0042403,25.3340408 C15.5200235,25.3340408 12.6716139,22.4934741 12.6716139,19.0000013 C12.6716139,15.5065285 15.5115468,12.6659617 19.0042403,12.6659617 C22.4969324,12.6659617 25.3368654,15.5065285 25.3368654,19.0000013 C25.3368654,22.4934741 22.4884545,25.3340408 19.004239,25.3340408 L19.0042403,25.3340408 Z M31.4151707,8.85875234 C31.4151707,7.60381644 30.3978813,6.5863 29.1432254,6.5863 C27.8885695,6.5863 26.87128,7.60381644 26.87128,8.85875234 C26.87128,10.1136908 27.8800915,11.1312073 29.1432254,11.1312073 C30.3978813,11.1312073 31.4151707,10.1221707 31.4151707,8.85875234 Z M37.8664817,11.165124 C37.7223646,8.12105448 37.0272184,5.42463437 34.7976575,3.20305837 C32.5765746,0.981479783 29.8807587,0.286178438 26.8373683,0.13354942 C23.7007259,-0.0445164734 14.2992767,-0.0445164734 11.1626343,0.13354942 C8.12772057,0.277698617 5.43190334,0.972999962 3.20234376,3.19457855 C0.972784176,5.41615714 0.286113297,8.11257465 0.133519625,11.1566441 C-0.0445065417,14.2939865 -0.0445065417,23.6975337 0.133519625,26.834876 C0.277635368,29.8789455 0.972782883,32.5753656 3.20234246,34.7969416 C5.43190204,37.0185176 8.11924135,37.7138216 11.162633,37.8664506 C14.2992754,38.0445165 23.7007246,38.0445165 26.837367,37.8664506 C29.8807574,37.7223014 32.5765759,37.027 34.7976562,34.7969416 C37.0187392,32.575363 37.7138854,29.8789455 37.8664804,26.834876 C38.0445065,23.6975337 38.0445065,14.302465 37.8664804,11.165124 L37.8664817,11.165124 Z M33.8142759,30.2011606 C33.1530389,31.8631046 31.8729491,33.14348 30.202898,33.8133445 C27.7020615,34.805424 21.7678732,34.5764818 19.0042364,34.5764818 C16.2405996,34.5764818 10.2979346,34.7969442 7.80557478,33.8133445 C6.14400154,33.1519598 4.86391183,31.8715845 4.19419681,30.2011606 C3.20233988,27.699766 3.43122974,21.7642535 3.43122974,19 C3.43122974,16.2357465 3.21081651,10.2917567 4.19419681,7.79883939 C4.85543519,6.13689536 6.1355249,4.85651999 7.80557478,4.18665552 C10.3064113,3.19457855 16.2405996,3.42351819 19.0042364,3.42351819 C21.7678732,3.42351819 27.7105394,3.20305578 30.202898,4.18665552 C31.8644712,4.84804276 33.1445609,6.12841554 33.8142759,7.79883939 C34.8061342,10.300234 34.577243,16.2357465 34.577243,19 C34.577243,21.7642535 34.8061342,27.7082433 33.8142759,30.2011606 Z" id="Shape"></path>
                </g>
            </g>
        </g>
    </g>
</svg>