<?xml version="1.0" encoding="UTF-8"?>
<svg width="368px" height="146px" viewBox="0 0 368 146" version="1.1" xmlns="http://www.w3.org/2000/svg" xmlns:xlink="http://www.w3.org/1999/xlink">
    <title>The white Box. 2</title>
    <g id="Page-1" stroke="none" stroke-width="1" fill="none" fill-rule="evenodd">
        <g id="Large-Devices:-Desktops---12-col" transform="translate(-129.000000, -98.000000)" fill="#000000" fill-rule="nonzero">
            <g id="header" transform="translate(0.000000, -0.000000)">
                <g id="The-white-Box." transform="translate(129.000000, 98.000000)">
                    <polygon id="Path" points="16.9733437 61.6752232 29.2657892 61.6752232 29.2657892 13.0357143 46.2798363 13.0357143 46.2798363 2.89229911 0 2.89229911 0 13.0357143 16.9733437 13.0357143"></polygon>
                    <path d="M52.3446521,61.6752232 L64.230063,61.6752232 L64.230063,36.6629464 C64.230063,30.9598214 67.6084504,26.9676339 72.859197,26.9676339 C78.2727574,26.9676339 81.2848136,30.593192 81.2848136,36.703683 L81.2848136,61.6752232 L93.1702245,61.6752232 L93.1702245,34.2594866 C93.1702245,23.7087054 87.308926,17.109375 77.8657228,17.109375 C71.3124654,17.109375 66.7129742,20.1238839 64.4742838,25.5418527 L64.230063,25.5418527 L64.230063,2.89229911 L52.3446521,2.89229911 L52.3446521,61.6752232 Z" id="Path"></path>
                    <path d="M120.645061,62.5714286 C133.100321,62.5714286 139.124433,55.1981027 140.467647,48.7617188 L140.589758,48.3136161 L129.68123,48.3136161 L129.599823,48.5580357 C128.74505,51.0022321 125.773698,53.6908482 120.889282,53.6908482 C114.824466,53.6908482 111.039044,49.6171875 110.916934,42.6512277 L140.956089,42.6512277 L140.956089,38.984933 C140.956089,25.7862723 132.937507,17.109375 120.15662,17.109375 C107.375733,17.109375 99.1943369,25.9899554 99.1943369,39.8811384 L99.1943369,39.921875 C99.1943369,53.8945312 107.294326,62.5714286 120.645061,62.5714286 Z M120.360137,25.9899554 C125.285256,25.9899554 128.826457,29.1266741 129.55912,35.155692 L111.039044,35.155692 C111.81241,29.2488839 115.475722,25.9899554 120.360137,25.9899554 Z" id="Shape"></path>
                    <polygon id="Path" points="172.053534 61.6752232 184.549497 61.6752232 192.405265 30.796875 192.649486 30.796875 200.545957 61.6752232 213.204734 61.6752232 224.764517 18.0055804 213.04192 18.0055804 206.407256 50.391183 206.163035 50.391183 198.388674 18.0055804 186.991704 18.0055804 179.258047 50.391183 179.013826 50.391183 172.419865 18.0055804 160.453047 18.0055804"></polygon>
                    <path d="M229.689636,61.6752232 L241.575047,61.6752232 L241.575047,36.6629464 C241.575047,30.9598214 244.953434,26.9676339 250.204181,26.9676339 C255.617741,26.9676339 258.629798,30.593192 258.629798,36.703683 L258.629798,61.6752232 L270.515208,61.6752232 L270.515208,34.2594866 C270.515208,23.7087054 264.65391,17.109375 255.210707,17.109375 C248.657449,17.109375 244.057958,20.1238839 241.819268,25.5418527 L241.575047,25.5418527 L241.575047,2.89229911 L229.689636,2.89229911 L229.689636,61.6752232 Z" id="Path"></path>
                    <path d="M284.313682,12.3839286 C287.895587,12.3839286 290.663422,9.57310268 290.663422,6.19196429 C290.663422,2.81082589 287.895587,0 284.313682,0 C280.731777,0 277.963942,2.81082589 277.963942,6.19196429 C277.963942,9.57310268 280.731777,12.3839286 284.313682,12.3839286 Z M278.370977,61.6752232 L290.256388,61.6752232 L290.256388,18.0055804 L278.370977,18.0055804 L278.370977,61.6752232 Z" id="Shape"></path>
                    <path d="M315.533237,62.5714286 C318.016149,62.5714286 319.929211,62.3270089 321.272426,62.1233259 L321.272426,53.405692 C320.539763,53.4871652 319.766398,53.609375 318.708108,53.609375 C315.126203,53.609375 313.294547,52.2243304 313.294547,48.1506696 L313.294547,26.9676339 L321.272426,26.9676339 L321.272426,18.0055804 L313.294547,18.0055804 L313.294547,7.33258929 L301.287026,7.33258929 L301.287026,18.0055804 L295.22221,18.0055804 L295.22221,26.9676339 L301.287026,26.9676339 L301.287026,49.4542411 C301.287026,58.8236607 305.845814,62.5714286 315.533237,62.5714286 Z" id="Path"></path>
                    <path d="M347.688972,62.5714286 C360.144232,62.5714286 366.168344,55.1981027 367.511558,48.7617188 L367.633669,48.3136161 L356.725141,48.3136161 L356.643734,48.5580357 C355.788961,51.0022321 352.817609,53.6908482 347.933193,53.6908482 C341.868377,53.6908482 338.082955,49.6171875 337.960845,42.6512277 L368,42.6512277 L368,38.984933 C368,25.7862723 359.981418,17.109375 347.200531,17.109375 C334.419644,17.109375 326.238248,25.9899554 326.238248,39.8811384 L326.238248,39.921875 C326.238248,53.8945312 334.338237,62.5714286 347.688972,62.5714286 Z M347.404048,25.9899554 C352.329167,25.9899554 355.870368,29.1266741 356.603031,35.155692 L338.082955,35.155692 C338.856321,29.2488839 342.519633,25.9899554 347.404048,25.9899554 Z" id="Shape"></path>
                    <path d="M2.93064926,145.103795 L28.9401615,145.103795 C41.4768278,145.103795 49.251189,138.667411 49.251189,128.361049 L49.251189,128.279576 C49.251189,120.580357 43.349187,114.795759 35.1677912,114.18471 L35.1677912,113.94029 C41.6396416,113.084821 46.5240571,107.585379 46.5240571,101.148996 L46.5240571,101.067522 C46.5240571,92.0239955 39.5637651,86.3208705 28.4924234,86.3208705 L2.93064926,86.3208705 L2.93064926,145.103795 Z M25.3175534,95.4458705 C31.0567415,95.4458705 34.4351289,98.1344866 34.4351289,102.819196 L34.4351289,102.90067 C34.4351289,107.992746 30.7311138,110.885045 23.8115253,110.885045 L15.2230948,110.885045 L15.2230948,95.4458705 L25.3175534,95.4458705 Z M25.2768499,119.236049 C32.8069904,119.236049 36.7145227,122.128348 36.7145227,127.50558 L36.7145227,127.587054 C36.7145227,133.045759 32.8476938,135.938058 25.8059949,135.938058 L15.2230948,135.938058 L15.2230948,119.236049 L25.2768499,119.236049 Z" id="Shape"></path>
                    <path d="M75.2607012,146 C88.4486229,146 96.8742396,137.526786 96.8742396,123.268973 L96.8742396,123.1875 C96.8742396,109.051897 88.2858091,100.537946 75.2199978,100.537946 C62.1948899,100.537946 53.6471629,109.133371 53.6471629,123.1875 L53.6471629,123.268973 C53.6471629,137.486049 61.9913726,146 75.2607012,146 Z M75.3014047,136.671317 C69.4401062,136.671317 65.7360911,131.823661 65.7360911,123.268973 L65.7360911,123.1875 C65.7360911,114.755022 69.4808096,109.866629 75.2199978,109.866629 C80.9998894,109.866629 84.7853114,114.755022 84.7853114,123.1875 L84.7853114,123.268973 C84.7853114,131.782924 81.0812963,136.671317 75.3014047,136.671317 Z" id="Shape"></path>
                    <polygon id="Path" points="100.008406 145.103795 112.504369 145.103795 120.685765 129.949777 120.929986 129.949777 129.233492 145.103795 142.136489 145.103795 128.62294 123.024554 142.2586 101.434152 129.314899 101.434152 121.581241 116.180804 121.33702 116.180804 113.481252 101.434152 100.089813 101.434152 113.684769 123.350446"></polygon>
                    <path d="M153.167128,145.796317 C156.830439,145.796317 159.761088,142.863281 159.761088,139.196987 C159.761088,135.489955 156.830439,132.597656 153.167128,132.597656 C149.463112,132.597656 146.573167,135.489955 146.573167,139.196987 C146.573167,142.863281 149.463112,145.796317 153.167128,145.796317 Z" id="Path"></path>
                </g>
            </g>
        </g>
    </g>
</svg>