<?xml version="1.0" encoding="UTF-8"?>
<svg width="39px" height="29px" viewBox="0 0 39 29" version="1.1" xmlns="http://www.w3.org/2000/svg" xmlns:xlink="http://www.w3.org/1999/xlink">
    <title>envelope</title>
    <g id="Page-1" stroke="none" stroke-width="1" fill="none" fill-rule="evenodd">
        <g id="Large-Devices:-Desktops---12-col" transform="translate(-657.000000, -2625.000000)" fill="#000000" fill-rule="nonzero">
            <g id="footer" transform="translate(-11.000000, 2322.000000)">
                <g id="envelope" transform="translate(668.000000, 303.000000)">
                    <path d="M0,4.83333333 C0,2.16367141 2.18232375,0 4.875,0 L34.125,0 C36.8138663,0 39,2.16367141 39,4.83333333 L39,24.1666667 C39,26.8325512 36.8138663,29 34.125,29 L4.875,29 C2.18232375,29 0,26.8325512 0,24.1666667 L0,4.83333333 Z M3.65625,4.83333333 L3.65625,6.50234421 L16.7958984,17.1960947 C18.3650395,18.4799488 20.6349605,18.4799488 22.2041016,17.1960947 L35.34375,6.50234421 L35.34375,4.76536504 C35.34375,4.16875092 34.7953116,3.55703171 34.125,3.55703171 L4.875,3.55703171 C4.2016409,3.55703171 3.65625,4.16875092 3.65625,4.76536504 L3.65625,4.83333333 Z M3.65625,11.1921873 L3.65625,24.1666667 C3.65625,24.8312491 4.2016409,25.375 4.875,25.375 L34.125,25.375 C34.7953116,25.375 35.34375,24.8312491 35.34375,24.1666667 L35.34375,11.1921873 L24.5273438,19.9979157 C21.6023442,22.376822 17.3976558,22.376822 14.404102,19.9979157 L3.65625,11.1921873 Z" id="Shape"></path>
                </g>
            </g>
        </g>
    </g>
</svg>