<?xml version="1.0" encoding="UTF-8"?>
<svg width="373px" height="224px" viewBox="0 0 373 224" version="1.1" xmlns="http://www.w3.org/2000/svg" xmlns:xlink="http://www.w3.org/1999/xlink">
    <title>Group 2</title>
    <g id="Page-1" stroke="none" stroke-width="1" fill="none" fill-rule="evenodd">
        <g id="Large-Devices:-Desktops---12-col" transform="translate(-525.000000, -2016.000000)">
            <g id="main" transform="translate(-145.000000, 815.000000)">
                <g id="Group-2" transform="translate(671.000000, 1201.060606)">
                    <g id="Fichier-5" transform="translate(0.000000, 23.939394)" stroke="#FFFFFF" stroke-width="1.5">
                        <path d="M74.1120909,109.915582 L80.7866682,102.630111 C81.4428131,101.906089 82.3930919,101.498827 83.3659964,101.498827 L96.1947603,101.498827 C97.1224134,101.498827 98.0048151,101.860838 98.66096,102.516983 L113.707041,117.42731 C114.363186,118.083455 115.245588,118.445465 116.173241,118.445465 L122.191673,118.445465 C123.141952,118.445465 124.069605,118.830102 124.72575,119.531498 L132.622114,127.812499 C133.233008,128.468644 133.595019,129.32842 133.595019,130.233448 L133.595019,136.500763 C133.595019,137.428416 133.233008,138.310818 132.576863,138.966963 L118.662066,152.881759 C118.005921,153.537904 117.64391,154.420306 117.64391,155.347959 L117.64391,161.570023 C117.64391,162.497676 117.281899,163.380078 116.64838,164.013597 L106.376319,174.421412 C105.720174,175.077557 104.815147,175.462194 103.887493,175.462194 L103.887493,175.462194 C101.96431,175.462194 100.403138,177.023366 100.403138,178.946549 L100.403138,188.743471 C100.403138,189.648499 100.742523,190.508275 101.353417,191.141794 L102.462075,192.31833 C103.072969,192.974475 103.412354,193.834251 103.412354,194.716653 L103.412354,195.508552 C103.412354,198.585645 99.7243673,200.146817 97.50705,198.020003 L88.9997922,189.85213 C88.3210216,189.195985 87.9137592,188.290958 87.9137592,187.340679 L87.9137592,148.333997 C87.9137592,147.47422 87.5969996,146.63707 87.0087318,146.003551 L74.1120909,131.704117 C73.523823,131.070598 73.2070634,130.233448 73.2070634,129.373672 L73.2070634,112.268653 C73.2070634,111.386251 73.523823,110.549101 74.1120909,109.915582 L74.1120909,109.915582 Z" id="Path"></path>
                        <path d="M58.4324906,98.670616 L33.4537334,73.3072222 C32.7297114,72.5832002 32.3224491,71.5876701 32.3224491,70.5468885 L32.3224491,53.9622608 C32.3224491,52.9214792 32.7297114,51.9259491 33.4763591,51.2019271 L36.9607147,47.7175715 C38.5897641,46.0885221 38.4766356,43.4186912 36.7118321,41.9480216 L29.6978695,36.0653433 C28.8154678,35.3186956 28.295077,34.210037 28.295077,33.056127 L28.295077,33.056127 C28.295077,30.8840612 26.5302735,29.1418834 24.3808333,29.1418834 L18.5207807,29.1418834 C17.5478762,29.1418834 16.6202231,29.5038944 15.8962011,30.1374136 L9.69676321,35.7033323 C8.09033951,37.1513762 5.62413975,37.0156221 4.17609586,35.4091984 L1.00849984,31.9248428 C-0.394292685,30.3636704 -0.326415627,27.9879734 1.16687964,26.4946781 L12.6381024,15.1592095 C13.3621243,14.4351876 14.3576545,14.0279252 15.398436,14.0279252 L61.7810921,14.0279252 C62.8218736,14.0279252 63.8174038,13.6206629 64.5414257,12.8740153 L68.8403061,8.57513494 C69.564328,7.85111299 70.5824839,7.42122496 71.6006397,7.42122496 L103.864868,7.42122496 C104.928275,7.42122496 105.946431,7.85111299 106.693078,8.62038631 L114.521566,16.7430075 C115.946984,18.2136771 115.992235,20.5441228 114.634694,22.0600437 L110.629948,26.5625552 C109.317658,28.0332248 109.295032,30.2731677 110.629948,31.7664629 L116.80676,38.7804256 C118.164301,40.3189722 118.096424,42.6494178 116.671006,44.1200874 L110.35844,50.5684079 C109.611792,51.3150555 108.616262,51.7449436 107.552855,51.7449436 L98.6835857,51.7449436 C97.6428042,51.7449436 96.647274,52.1522059 95.923252,52.8988535 L76.9176759,71.9044297 C76.193654,72.6284516 75.1754981,73.0583396 74.1573422,73.0583396 L61.6000866,73.0583396 C59.4280207,73.0583396 57.6858429,74.8231431 57.6858429,76.9725833 L57.6858429,85.0499532 C57.6858429,86.0907347 58.115731,87.1088906 58.8623786,87.8329125 L64.2925432,93.1725744 C66.7813686,95.6387741 65.0391908,99.8924031 61.5548352,99.8924031 L61.2607013,99.8924031 C60.2199197,99.8924031 59.2017639,99.462515 58.4777419,98.7158674 L58.4324906,98.670616 Z" id="Path"></path>
                        <path d="M119.567094,2.78295936 L121.128266,0.972904492 C121.671283,0.339385288 122.440556,3.55271368e-15 123.277706,3.55271368e-15 L148.32434,3.55271368e-15 C149.048362,3.55271368e-15 149.727133,0.27150823 150.270149,0.769273319 L156.446962,6.60670027 C157.012604,7.14971673 157.329363,7.87373868 157.329363,8.643012 L157.329363,15.6343489 C157.329363,16.3809966 157.03523,17.1050185 156.514839,17.6254093 L151.129926,23.0103225 C150.609535,23.5307133 149.885513,23.8248472 149.138865,23.8248472 L137.441386,23.8248472 C136.807866,23.8248472 136.196973,24.0511041 135.699208,24.4357407 L131.287199,27.942722 C130.133289,28.8703752 128.458988,28.734621 127.463458,27.6485881 L125.291392,25.2728911 C124.816253,24.7525003 124.544745,24.0737298 124.544745,23.3723335 L124.544745,10.2494357 C124.544745,8.68826337 123.277706,7.42122496 121.716534,7.42122496 L121.716534,7.42122496 C119.318211,7.42122496 118.005921,4.59301423 119.567094,2.76033368 L119.567094,2.78295936 Z" id="Path"></path>
                        <path d="M165.700867,43.1698086 L194.32236,14.548316 C194.774874,14.0958023 195.408393,13.8242941 196.064538,13.8242941 L224.052511,13.8242941 C224.708656,13.8242941 225.319549,13.5754115 225.772063,13.1228978 L233.283791,5.74692421 C233.736305,5.29441049 234.369824,5.04552795 235.003343,5.04552795 L306.025371,5.04552795 C306.726767,5.04552795 307.405538,5.33966186 307.858051,5.86005264 L312.926205,11.5617255 C313.401345,12.0821163 314.057489,12.3762502 314.758886,12.3762502 L346.299092,12.3762502 C346.977862,12.3762502 347.611382,12.6477584 348.063895,13.1228978 L359.059979,24.5036178 C359.987632,25.4765223 359.987632,27.0150689 359.014727,27.9653477 L349.217805,37.6491413 C348.267526,38.5994201 346.72898,38.5994201 345.778701,37.6491413 L338.96837,31.0650667 C338.515856,30.612553 337.904962,30.3636704 337.248817,30.3636704 L327.361393,30.3636704 C326.659996,30.3636704 326.003852,30.6578043 325.528712,31.1781951 L323.582903,33.350261 C322.180111,34.9114333 323.243518,37.4002587 325.347707,37.4681358 L332.949937,37.6943926 C333.583456,37.6943926 334.171724,37.9659009 334.624238,38.4184146 L346.955237,50.7494134 C347.928141,51.7223179 347.928141,53.2834902 346.955237,54.233769 L312.42844,88.7605656 C311.455536,89.7334701 311.455536,91.2946425 312.42844,92.2449213 L317.247711,97.0641923 C318.220616,98.0370968 318.220616,99.5982692 317.247711,100.548548 L308.378442,109.417817 C307.925929,109.870331 307.65442,110.50385 307.65442,111.159995 L307.65442,122.314458 C307.65442,124.509149 305.007215,125.617808 303.446043,124.056636 L293.332361,113.942954 C292.879847,113.49044 292.608339,112.856921 292.608339,112.200776 L292.608339,94.1454789 C292.608339,93.489334 292.359457,92.8558148 291.884317,92.4033011 L285.933762,86.4527457 C284.960857,85.4798412 283.399685,85.4798412 282.449406,86.4527457 L275.706952,93.1952001 C275.254438,93.6477138 274.98293,94.281233 274.98293,94.9373779 L274.98293,100.729553 C274.98293,102.924245 272.335725,104.032904 270.774552,102.471731 L262.267294,93.9644734 C261.814781,93.5119597 261.543273,92.8784405 261.543273,92.2222956 L261.543273,82.4253736 C261.543273,81.0678324 260.434614,79.9591738 259.077073,79.9591738 L250.320932,79.9591738 C249.664787,79.9591738 249.031268,80.2080564 248.578755,80.6831958 L235.003343,94.2586073 C234.030439,95.2315118 232.469266,95.2315118 231.518987,94.2586073 L217.739945,80.4795646 C216.76704,79.5066601 215.205868,79.5066601 214.255589,80.4795646 L214.097209,80.6379444 C213.124305,81.6108489 213.124305,83.1720212 214.097209,84.1223 L231.76787,101.792961 C232.740774,102.765865 234.301947,102.765865 235.252226,101.792961 L235.749991,101.295196 C237.311163,99.7340233 239.958368,100.842682 239.958368,103.037373 L239.958368,114.350216 C239.958368,115.006361 239.709486,115.63988 239.234346,116.092394 L226.473459,128.853281 C226.020946,129.305795 225.749438,129.939314 225.749438,130.595459 L225.749438,142.473944 C225.749438,143.130089 225.500555,143.763608 225.025416,144.216122 L218.667598,150.573939 C218.215084,151.026453 217.943576,151.659972 217.943576,152.316117 L217.943576,160.438738 C217.943576,161.094883 217.694693,161.728403 217.219554,162.180916 L205.612577,173.787893 C204.051405,175.349065 201.4042,174.240407 201.4042,172.045715 L201.4042,162.158291 C201.4042,161.502146 201.155317,160.868626 200.680178,160.416113 L187.059515,146.79545 C186.607001,146.342936 186.335493,145.709417 186.335493,145.053272 L186.335493,127.0206 C186.335493,126.364456 186.08661,125.730936 185.611471,125.278423 L180.430189,120.097141 C179.977675,119.644627 179.706167,119.011108 179.706167,118.354963 L179.706167,111.589883 C179.706167,109.395191 177.058962,108.286533 175.497789,109.847705 L170.588015,114.757479 C169.615111,115.730383 168.053939,115.730383 167.10366,114.757479 L152.758975,100.412794 C152.306461,99.9602801 152.034953,99.3267609 152.034953,98.670616 L152.034953,83.5566579 C152.034953,82.900513 152.283836,82.2669938 152.758975,81.8144801 L168.777961,65.7954945 C169.230474,65.3429808 169.863993,65.0714725 170.520138,65.0714725 L188.665938,65.0714725 C189.322083,65.0714725 189.955602,65.3203551 190.408116,65.7954945 L194.639119,70.0264977 C195.612024,70.9994022 197.173196,70.9994022 198.123475,70.0264977 L199.910904,68.2390686 C200.363418,67.7865548 200.996937,67.5150466 201.653082,67.5150466 L211.15587,67.5150466 C212.513411,67.5150466 213.62207,66.406388 213.62207,65.0488469 L213.62207,65.0488469 C213.62207,63.6913057 212.513411,62.5826471 211.15587,62.5826471 L205.137438,62.5826471 C204.481293,62.5826471 203.847774,62.3337645 203.39526,61.8586251 L192.896942,51.3603069 C192.444428,50.9077932 191.810909,50.636285 191.154764,50.636285 L182.104489,50.636285 C181.448345,50.636285 180.814825,50.8851675 180.362312,51.3603069 L175.746672,55.9759468 C174.660639,57.0619797 172.87321,56.9035999 171.990808,55.6591872 L165.338856,46.2695276 C164.63746,45.2966231 164.750588,43.9617076 165.610364,43.1019316 L165.700867,43.1698086 Z" id="Path"></path>
                        <path d="M318.650504,165.823652 L318.650504,153.130642 C318.650504,152.08986 319.057766,151.09433 319.804414,150.347683 L330.144352,140.007744 C330.891,139.261096 331.88653,138.853834 332.927311,138.853834 L348.199649,138.853834 C349.240431,138.853834 350.235961,138.446572 350.982609,137.699924 L354.150205,134.532328 C355.688751,132.993781 358.177577,132.993781 359.716123,134.532328 L369.626174,144.442379 C370.372822,145.189026 370.780084,146.184556 370.780084,147.225338 L370.780084,158.221421 C370.780084,159.262203 370.372822,160.257733 369.626174,161.004381 L352.362776,178.267779 C350.824229,179.806326 348.335404,179.806326 346.796857,178.267779 L337.565577,169.036499 C336.818929,168.289851 335.823399,167.882589 334.782618,167.882589 L327.700778,167.882589 C326.773125,167.882589 325.868097,168.221974 325.144075,168.832868 L325.144075,168.832868 C322.587373,171.004934 318.673129,169.194879 318.673129,165.846277 L318.650504,165.823652 Z" id="Path"></path>
                    </g>
                    <g id="Fichier-7" transform="translate(63.000000, 79.000000)" fill-rule="nonzero">
                        <path d="M25.2077731,8.48954153 C23.3824336,3.53478206 18.6055923,0 13,0 C5.82038932,0 0,5.79860205 0,12.9513375 C0,16.3682935 1.32878453,19.4768224 3.49849488,21.7908918 L10.060673,32.2592182 C11.4155462,34.4216731 14.5774968,34.4182076 15.9271523,32.2514209 C15.9271523,32.2514209 22.035387,22.4441334 22.3310589,21.9684972 C24.2111847,19.0644312 26,16.4566631 26,12.9513375 C26,11.3832112 25.7199813,9.88092878 25.2077731,8.48954153 L25.2077731,8.48954153 Z" id="Path" fill="#FFFFFF"></path>
                        <path d="M12.5720872,3.5754819 L12.5720872,11.5934925 C12.5720872,11.9210242 12.5329225,12.2754882 12.5720872,12.6021511 C12.6164737,12.9748596 13.0307485,13.1156026 13.3214371,13.283278 C14.6599971,14.0547585 15.9985571,14.826239 17.3371171,15.5977194 C18.4302455,16.2275881 19.5233738,16.8574567 20.6165021,17.4881941 L20.6165021,16.7566777 C18.3318987,18.0737548 16.0472953,19.389963 13.7618216,20.7070401 C13.4354497,20.8955663 13.1082074,21.0832237 12.7818355,21.2717499 L13.2100355,21.2717499 C10.9254321,19.9546728 8.64082865,18.6384646 6.35535491,17.3213875 C6.028983,17.1328613 5.70174076,16.9452039 5.37536884,16.7566777 L5.37536884,17.4881941 C7.65997225,16.1711171 9.94457566,14.8549088 12.2300494,13.5378318 C12.5564213,13.3493056 12.8836636,13.1616482 13.2100355,12.973122 L12.7818355,12.973122 C15.0664389,14.290199 17.3510423,15.6064073 19.6365161,16.9234843 C19.962888,17.1120105 20.2901302,17.2996679 20.6165021,17.4881941 C20.8950062,17.6489192 21.2553208,17.4447549 21.2553208,17.1224359 L21.2553208,9.10355659 C21.2553208,8.77602489 21.2944854,8.42156089 21.2553208,8.09489798 C21.2109342,7.7221895 20.7966594,7.58144644 20.5059709,7.41377107 C19.1674108,6.64229058 17.8288508,5.8708101 16.4902908,5.09932962 C15.3971625,4.46946098 14.3040341,3.83959234 13.2109058,3.20885492 C13.0786164,3.1324019 12.9149953,3.1324019 12.7827058,3.20885492 C10.4641598,4.54504521 8.14561366,5.88123551 5.82706757,7.21742581 C5.54247126,7.38162605 5.21609935,7.52497546 4.95239084,7.72132072 C4.65386933,7.94459829 4.73829086,8.37812167 4.73829086,8.71086607 L4.73829086,17.1198296 C4.73829086,17.6645574 5.58685784,17.6654261 5.58685784,17.1198296 L5.58685784,8.09142284 L5.37710949,8.45718105 C7.6617129,7.140104 9.94631631,5.82389575 12.23179,4.5068187 C12.558162,4.3182925 12.8854042,4.13063509 13.2117761,3.94210889 L12.7835762,3.94210889 C15.0681796,5.25918593 17.352783,6.57539419 19.6382567,7.89247123 C19.9646286,8.08099743 20.2918709,8.26865485 20.6182428,8.45718105 L20.4084944,8.09142284 L20.4084944,17.1224359 L21.0473131,16.7566777 C18.7627097,15.4396007 16.4781063,14.1233924 14.1926325,12.8063154 C13.8662606,12.6177892 13.5390184,12.4301318 13.2126464,12.2416056 C13.080357,12.1651526 12.9167359,12.1651526 12.7844465,12.2416056 C10.4998431,13.5586826 8.21523967,14.8748909 5.92976594,16.1919679 C5.60339402,16.3804941 5.27615178,16.5681515 4.94977986,16.7566777 C4.67475713,16.9156653 4.67475713,17.3292066 4.94977986,17.4881941 C7.23438327,18.8052712 9.51898668,20.1214794 11.8044604,21.4385565 C12.1308323,21.6270827 12.4580746,21.8147401 12.7844465,22.0032663 C12.9167359,22.0797193 13.080357,22.0797193 13.2126464,22.0032663 C15.4972499,20.6861893 17.7818533,19.369981 20.067327,18.052904 C20.3936989,17.8643778 20.7209412,17.6767203 21.0473131,17.4881941 C21.3223358,17.3292066 21.3223358,16.9156653 21.0473131,16.7566777 C18.7627097,15.4396007 16.4781063,14.1233924 14.1926325,12.8063154 C13.8662606,12.6177892 13.5390184,12.4301318 13.2126464,12.2416056 L13.4223948,12.6073638 L13.4223948,3.5754819 C13.4223948,3.03075413 12.5738278,3.02988535 12.5738278,3.5754819 L12.5738278,3.5754819 L12.5720872,3.5754819 Z" id="Path" fill="#000000"></path>
                        <polyline id="Path" fill="#FFFFFF" points="3.33866267 21.4443471 3.33427777 21.4381726 7.87878788 28.7575758 1.96969697 19.6969697"></polyline>
                    </g>
                    <g id="Fichier-7" transform="translate(212.000000, 103.000000)" fill-rule="nonzero">
                        <path d="M25.2077731,8.48954153 C23.3824336,3.53478206 18.6055923,0 13,0 C5.82038932,0 0,5.79860205 0,12.9513375 C0,16.3682935 1.32878453,19.4768224 3.49849488,21.7908918 L10.060673,32.2592182 C11.4155462,34.4216731 14.5774968,34.4182076 15.9271523,32.2514209 C15.9271523,32.2514209 22.035387,22.4441334 22.3310589,21.9684972 C24.2111847,19.0644312 26,16.4566631 26,12.9513375 C26,11.3832112 25.7199813,9.88092878 25.2077731,8.48954153 L25.2077731,8.48954153 Z" id="Path" fill="#FFFFFF"></path>
                        <path d="M12.5720872,3.5754819 L12.5720872,11.5934925 C12.5720872,11.9210242 12.5329225,12.2754882 12.5720872,12.6021511 C12.6164737,12.9748596 13.0307485,13.1156026 13.3214371,13.283278 C14.6599971,14.0547585 15.9985571,14.826239 17.3371171,15.5977194 C18.4302455,16.2275881 19.5233738,16.8574567 20.6165021,17.4881941 L20.6165021,16.7566777 C18.3318987,18.0737548 16.0472953,19.389963 13.7618216,20.7070401 C13.4354497,20.8955663 13.1082074,21.0832237 12.7818355,21.2717499 L13.2100355,21.2717499 C10.9254321,19.9546728 8.64082865,18.6384646 6.35535491,17.3213875 C6.028983,17.1328613 5.70174076,16.9452039 5.37536884,16.7566777 L5.37536884,17.4881941 C7.65997225,16.1711171 9.94457566,14.8549088 12.2300494,13.5378318 C12.5564213,13.3493056 12.8836636,13.1616482 13.2100355,12.973122 L12.7818355,12.973122 C15.0664389,14.290199 17.3510423,15.6064073 19.6365161,16.9234843 C19.962888,17.1120105 20.2901302,17.2996679 20.6165021,17.4881941 C20.8950062,17.6489192 21.2553208,17.4447549 21.2553208,17.1224359 L21.2553208,9.10355659 C21.2553208,8.77602489 21.2944854,8.42156089 21.2553208,8.09489798 C21.2109342,7.7221895 20.7966594,7.58144644 20.5059709,7.41377107 C19.1674108,6.64229058 17.8288508,5.8708101 16.4902908,5.09932962 C15.3971625,4.46946098 14.3040341,3.83959234 13.2109058,3.20885492 C13.0786164,3.1324019 12.9149953,3.1324019 12.7827058,3.20885492 C10.4641598,4.54504521 8.14561366,5.88123551 5.82706757,7.21742581 C5.54247126,7.38162605 5.21609935,7.52497546 4.95239084,7.72132072 C4.65386933,7.94459829 4.73829086,8.37812167 4.73829086,8.71086607 L4.73829086,17.1198296 C4.73829086,17.6645574 5.58685784,17.6654261 5.58685784,17.1198296 L5.58685784,8.09142284 L5.37710949,8.45718105 C7.6617129,7.140104 9.94631631,5.82389575 12.23179,4.5068187 C12.558162,4.3182925 12.8854042,4.13063509 13.2117761,3.94210889 L12.7835762,3.94210889 C15.0681796,5.25918593 17.352783,6.57539419 19.6382567,7.89247123 C19.9646286,8.08099743 20.2918709,8.26865485 20.6182428,8.45718105 L20.4084944,8.09142284 L20.4084944,17.1224359 L21.0473131,16.7566777 C18.7627097,15.4396007 16.4781063,14.1233924 14.1926325,12.8063154 C13.8662606,12.6177892 13.5390184,12.4301318 13.2126464,12.2416056 C13.080357,12.1651526 12.9167359,12.1651526 12.7844465,12.2416056 C10.4998431,13.5586826 8.21523967,14.8748909 5.92976594,16.1919679 C5.60339402,16.3804941 5.27615178,16.5681515 4.94977986,16.7566777 C4.67475713,16.9156653 4.67475713,17.3292066 4.94977986,17.4881941 C7.23438327,18.8052712 9.51898668,20.1214794 11.8044604,21.4385565 C12.1308323,21.6270827 12.4580746,21.8147401 12.7844465,22.0032663 C12.9167359,22.0797193 13.080357,22.0797193 13.2126464,22.0032663 C15.4972499,20.6861893 17.7818533,19.369981 20.067327,18.052904 C20.3936989,17.8643778 20.7209412,17.6767203 21.0473131,17.4881941 C21.3223358,17.3292066 21.3223358,16.9156653 21.0473131,16.7566777 C18.7627097,15.4396007 16.4781063,14.1233924 14.1926325,12.8063154 C13.8662606,12.6177892 13.5390184,12.4301318 13.2126464,12.2416056 L13.4223948,12.6073638 L13.4223948,3.5754819 C13.4223948,3.03075413 12.5738278,3.02988535 12.5738278,3.5754819 L12.5738278,3.5754819 L12.5720872,3.5754819 Z" id="Path" fill="#000000"></path>
                        <polyline id="Path" fill="#FFFFFF" points="3.33866267 21.4443471 3.33427777 21.4381726 7.87878788 28.7575758 1.96969697 19.6969697"></polyline>
                    </g>
                    <g id="Fichier-7" transform="translate(93.000000, 124.000000)" fill-rule="nonzero">
                        <path d="M25.2077731,8.48954153 C23.3824336,3.53478206 18.6055923,0 13,0 C5.82038932,0 0,5.79860205 0,12.9513375 C0,16.3682935 1.32878453,19.4768224 3.49849488,21.7908918 L10.060673,32.2592182 C11.4155462,34.4216731 14.5774968,34.4182076 15.9271523,32.2514209 C15.9271523,32.2514209 22.035387,22.4441334 22.3310589,21.9684972 C24.2111847,19.0644312 26,16.4566631 26,12.9513375 C26,11.3832112 25.7199813,9.88092878 25.2077731,8.48954153 L25.2077731,8.48954153 Z" id="Path" fill="#FFFFFF"></path>
                        <path d="M12.5720872,3.5754819 L12.5720872,11.5934925 C12.5720872,11.9210242 12.5329225,12.2754882 12.5720872,12.6021511 C12.6164737,12.9748596 13.0307485,13.1156026 13.3214371,13.283278 C14.6599971,14.0547585 15.9985571,14.826239 17.3371171,15.5977194 C18.4302455,16.2275881 19.5233738,16.8574567 20.6165021,17.4881941 L20.6165021,16.7566777 C18.3318987,18.0737548 16.0472953,19.389963 13.7618216,20.7070401 C13.4354497,20.8955663 13.1082074,21.0832237 12.7818355,21.2717499 L13.2100355,21.2717499 C10.9254321,19.9546728 8.64082865,18.6384646 6.35535491,17.3213875 C6.028983,17.1328613 5.70174076,16.9452039 5.37536884,16.7566777 L5.37536884,17.4881941 C7.65997225,16.1711171 9.94457566,14.8549088 12.2300494,13.5378318 C12.5564213,13.3493056 12.8836636,13.1616482 13.2100355,12.973122 L12.7818355,12.973122 C15.0664389,14.290199 17.3510423,15.6064073 19.6365161,16.9234843 C19.962888,17.1120105 20.2901302,17.2996679 20.6165021,17.4881941 C20.8950062,17.6489192 21.2553208,17.4447549 21.2553208,17.1224359 L21.2553208,9.10355659 C21.2553208,8.77602489 21.2944854,8.42156089 21.2553208,8.09489798 C21.2109342,7.7221895 20.7966594,7.58144644 20.5059709,7.41377107 C19.1674108,6.64229058 17.8288508,5.8708101 16.4902908,5.09932962 C15.3971625,4.46946098 14.3040341,3.83959234 13.2109058,3.20885492 C13.0786164,3.1324019 12.9149953,3.1324019 12.7827058,3.20885492 C10.4641598,4.54504521 8.14561366,5.88123551 5.82706757,7.21742581 C5.54247126,7.38162605 5.21609935,7.52497546 4.95239084,7.72132072 C4.65386933,7.94459829 4.73829086,8.37812167 4.73829086,8.71086607 L4.73829086,17.1198296 C4.73829086,17.6645574 5.58685784,17.6654261 5.58685784,17.1198296 L5.58685784,8.09142284 L5.37710949,8.45718105 C7.6617129,7.140104 9.94631631,5.82389575 12.23179,4.5068187 C12.558162,4.3182925 12.8854042,4.13063509 13.2117761,3.94210889 L12.7835762,3.94210889 C15.0681796,5.25918593 17.352783,6.57539419 19.6382567,7.89247123 C19.9646286,8.08099743 20.2918709,8.26865485 20.6182428,8.45718105 L20.4084944,8.09142284 L20.4084944,17.1224359 L21.0473131,16.7566777 C18.7627097,15.4396007 16.4781063,14.1233924 14.1926325,12.8063154 C13.8662606,12.6177892 13.5390184,12.4301318 13.2126464,12.2416056 C13.080357,12.1651526 12.9167359,12.1651526 12.7844465,12.2416056 C10.4998431,13.5586826 8.21523967,14.8748909 5.92976594,16.1919679 C5.60339402,16.3804941 5.27615178,16.5681515 4.94977986,16.7566777 C4.67475713,16.9156653 4.67475713,17.3292066 4.94977986,17.4881941 C7.23438327,18.8052712 9.51898668,20.1214794 11.8044604,21.4385565 C12.1308323,21.6270827 12.4580746,21.8147401 12.7844465,22.0032663 C12.9167359,22.0797193 13.080357,22.0797193 13.2126464,22.0032663 C15.4972499,20.6861893 17.7818533,19.369981 20.067327,18.052904 C20.3936989,17.8643778 20.7209412,17.6767203 21.0473131,17.4881941 C21.3223358,17.3292066 21.3223358,16.9156653 21.0473131,16.7566777 C18.7627097,15.4396007 16.4781063,14.1233924 14.1926325,12.8063154 C13.8662606,12.6177892 13.5390184,12.4301318 13.2126464,12.2416056 L13.4223948,12.6073638 L13.4223948,3.5754819 C13.4223948,3.03075413 12.5738278,3.02988535 12.5738278,3.5754819 L12.5738278,3.5754819 L12.5720872,3.5754819 Z" id="Path" fill="#000000"></path>
                        <polyline id="Path" fill="#FFFFFF" points="3.33866267 21.4443471 3.33427777 21.4381726 7.87878788 28.7575758 1.96969697 19.6969697"></polyline>
                    </g>
                    <g id="Fichier-7" transform="translate(173.000000, 34.000000)" fill-rule="nonzero">
                        <path d="M25.2077731,8.48954153 C23.3824336,3.53478206 18.6055923,0 13,0 C5.82038932,0 0,5.79860205 0,12.9513375 C0,16.3682935 1.32878453,19.4768224 3.49849488,21.7908918 L10.060673,32.2592182 C11.4155462,34.4216731 14.5774968,34.4182076 15.9271523,32.2514209 C15.9271523,32.2514209 22.035387,22.4441334 22.3310589,21.9684972 C24.2111847,19.0644312 26,16.4566631 26,12.9513375 C26,11.3832112 25.7199813,9.88092878 25.2077731,8.48954153 L25.2077731,8.48954153 Z" id="Path" fill="#FFFFFF"></path>
                        <path d="M12.5720872,3.5754819 L12.5720872,11.5934925 C12.5720872,11.9210242 12.5329225,12.2754882 12.5720872,12.6021511 C12.6164737,12.9748596 13.0307485,13.1156026 13.3214371,13.283278 C14.6599971,14.0547585 15.9985571,14.826239 17.3371171,15.5977194 C18.4302455,16.2275881 19.5233738,16.8574567 20.6165021,17.4881941 L20.6165021,16.7566777 C18.3318987,18.0737548 16.0472953,19.389963 13.7618216,20.7070401 C13.4354497,20.8955663 13.1082074,21.0832237 12.7818355,21.2717499 L13.2100355,21.2717499 C10.9254321,19.9546728 8.64082865,18.6384646 6.35535491,17.3213875 C6.028983,17.1328613 5.70174076,16.9452039 5.37536884,16.7566777 L5.37536884,17.4881941 C7.65997225,16.1711171 9.94457566,14.8549088 12.2300494,13.5378318 C12.5564213,13.3493056 12.8836636,13.1616482 13.2100355,12.973122 L12.7818355,12.973122 C15.0664389,14.290199 17.3510423,15.6064073 19.6365161,16.9234843 C19.962888,17.1120105 20.2901302,17.2996679 20.6165021,17.4881941 C20.8950062,17.6489192 21.2553208,17.4447549 21.2553208,17.1224359 L21.2553208,9.10355659 C21.2553208,8.77602489 21.2944854,8.42156089 21.2553208,8.09489798 C21.2109342,7.7221895 20.7966594,7.58144644 20.5059709,7.41377107 C19.1674108,6.64229058 17.8288508,5.8708101 16.4902908,5.09932962 C15.3971625,4.46946098 14.3040341,3.83959234 13.2109058,3.20885492 C13.0786164,3.1324019 12.9149953,3.1324019 12.7827058,3.20885492 C10.4641598,4.54504521 8.14561366,5.88123551 5.82706757,7.21742581 C5.54247126,7.38162605 5.21609935,7.52497546 4.95239084,7.72132072 C4.65386933,7.94459829 4.73829086,8.37812167 4.73829086,8.71086607 L4.73829086,17.1198296 C4.73829086,17.6645574 5.58685784,17.6654261 5.58685784,17.1198296 L5.58685784,8.09142284 L5.37710949,8.45718105 C7.6617129,7.140104 9.94631631,5.82389575 12.23179,4.5068187 C12.558162,4.3182925 12.8854042,4.13063509 13.2117761,3.94210889 L12.7835762,3.94210889 C15.0681796,5.25918593 17.352783,6.57539419 19.6382567,7.89247123 C19.9646286,8.08099743 20.2918709,8.26865485 20.6182428,8.45718105 L20.4084944,8.09142284 L20.4084944,17.1224359 L21.0473131,16.7566777 C18.7627097,15.4396007 16.4781063,14.1233924 14.1926325,12.8063154 C13.8662606,12.6177892 13.5390184,12.4301318 13.2126464,12.2416056 C13.080357,12.1651526 12.9167359,12.1651526 12.7844465,12.2416056 C10.4998431,13.5586826 8.21523967,14.8748909 5.92976594,16.1919679 C5.60339402,16.3804941 5.27615178,16.5681515 4.94977986,16.7566777 C4.67475713,16.9156653 4.67475713,17.3292066 4.94977986,17.4881941 C7.23438327,18.8052712 9.51898668,20.1214794 11.8044604,21.4385565 C12.1308323,21.6270827 12.4580746,21.8147401 12.7844465,22.0032663 C12.9167359,22.0797193 13.080357,22.0797193 13.2126464,22.0032663 C15.4972499,20.6861893 17.7818533,19.369981 20.067327,18.052904 C20.3936989,17.8643778 20.7209412,17.6767203 21.0473131,17.4881941 C21.3223358,17.3292066 21.3223358,16.9156653 21.0473131,16.7566777 C18.7627097,15.4396007 16.4781063,14.1233924 14.1926325,12.8063154 C13.8662606,12.6177892 13.5390184,12.4301318 13.2126464,12.2416056 L13.4223948,12.6073638 L13.4223948,3.5754819 C13.4223948,3.03075413 12.5738278,3.02988535 12.5738278,3.5754819 L12.5738278,3.5754819 L12.5720872,3.5754819 Z" id="Path" fill="#000000"></path>
                        <polyline id="Path" fill="#FFFFFF" points="3.33866267 21.4443471 3.33427777 21.4381726 7.87878788 28.7575758 1.96969697 19.6969697"></polyline>
                    </g>
                    <g id="Fichier-7" transform="translate(127.000000, 0.000000)" fill-rule="nonzero">
                        <path d="M25.2077731,8.48954153 C23.3824336,3.53478206 18.6055923,0 13,0 C5.82038932,0 0,5.79860205 0,12.9513375 C0,16.3682935 1.32878453,19.4768224 3.49849488,21.7908918 L10.060673,32.2592182 C11.4155462,34.4216731 14.5774968,34.4182076 15.9271523,32.2514209 C15.9271523,32.2514209 22.035387,22.4441334 22.3310589,21.9684972 C24.2111847,19.0644312 26,16.4566631 26,12.9513375 C26,11.3832112 25.7199813,9.88092878 25.2077731,8.48954153 L25.2077731,8.48954153 Z" id="Path" fill="#FFFFFF"></path>
                        <path d="M12.5720872,3.5754819 L12.5720872,11.5934925 C12.5720872,11.9210242 12.5329225,12.2754882 12.5720872,12.6021511 C12.6164737,12.9748596 13.0307485,13.1156026 13.3214371,13.283278 C14.6599971,14.0547585 15.9985571,14.826239 17.3371171,15.5977194 C18.4302455,16.2275881 19.5233738,16.8574567 20.6165021,17.4881941 L20.6165021,16.7566777 C18.3318987,18.0737548 16.0472953,19.389963 13.7618216,20.7070401 C13.4354497,20.8955663 13.1082074,21.0832237 12.7818355,21.2717499 L13.2100355,21.2717499 C10.9254321,19.9546728 8.64082865,18.6384646 6.35535491,17.3213875 C6.028983,17.1328613 5.70174076,16.9452039 5.37536884,16.7566777 L5.37536884,17.4881941 C7.65997225,16.1711171 9.94457566,14.8549088 12.2300494,13.5378318 C12.5564213,13.3493056 12.8836636,13.1616482 13.2100355,12.973122 L12.7818355,12.973122 C15.0664389,14.290199 17.3510423,15.6064073 19.6365161,16.9234843 C19.962888,17.1120105 20.2901302,17.2996679 20.6165021,17.4881941 C20.8950062,17.6489192 21.2553208,17.4447549 21.2553208,17.1224359 L21.2553208,9.10355659 C21.2553208,8.77602489 21.2944854,8.42156089 21.2553208,8.09489798 C21.2109342,7.7221895 20.7966594,7.58144644 20.5059709,7.41377107 C19.1674108,6.64229058 17.8288508,5.8708101 16.4902908,5.09932962 C15.3971625,4.46946098 14.3040341,3.83959234 13.2109058,3.20885492 C13.0786164,3.1324019 12.9149953,3.1324019 12.7827058,3.20885492 C10.4641598,4.54504521 8.14561366,5.88123551 5.82706757,7.21742581 C5.54247126,7.38162605 5.21609935,7.52497546 4.95239084,7.72132072 C4.65386933,7.94459829 4.73829086,8.37812167 4.73829086,8.71086607 L4.73829086,17.1198296 C4.73829086,17.6645574 5.58685784,17.6654261 5.58685784,17.1198296 L5.58685784,8.09142284 L5.37710949,8.45718105 C7.6617129,7.140104 9.94631631,5.82389575 12.23179,4.5068187 C12.558162,4.3182925 12.8854042,4.13063509 13.2117761,3.94210889 L12.7835762,3.94210889 C15.0681796,5.25918593 17.352783,6.57539419 19.6382567,7.89247123 C19.9646286,8.08099743 20.2918709,8.26865485 20.6182428,8.45718105 L20.4084944,8.09142284 L20.4084944,17.1224359 L21.0473131,16.7566777 C18.7627097,15.4396007 16.4781063,14.1233924 14.1926325,12.8063154 C13.8662606,12.6177892 13.5390184,12.4301318 13.2126464,12.2416056 C13.080357,12.1651526 12.9167359,12.1651526 12.7844465,12.2416056 C10.4998431,13.5586826 8.21523967,14.8748909 5.92976594,16.1919679 C5.60339402,16.3804941 5.27615178,16.5681515 4.94977986,16.7566777 C4.67475713,16.9156653 4.67475713,17.3292066 4.94977986,17.4881941 C7.23438327,18.8052712 9.51898668,20.1214794 11.8044604,21.4385565 C12.1308323,21.6270827 12.4580746,21.8147401 12.7844465,22.0032663 C12.9167359,22.0797193 13.080357,22.0797193 13.2126464,22.0032663 C15.4972499,20.6861893 17.7818533,19.369981 20.067327,18.052904 C20.3936989,17.8643778 20.7209412,17.6767203 21.0473131,17.4881941 C21.3223358,17.3292066 21.3223358,16.9156653 21.0473131,16.7566777 C18.7627097,15.4396007 16.4781063,14.1233924 14.1926325,12.8063154 C13.8662606,12.6177892 13.5390184,12.4301318 13.2126464,12.2416056 L13.4223948,12.6073638 L13.4223948,3.5754819 C13.4223948,3.03075413 12.5738278,3.02988535 12.5738278,3.5754819 L12.5738278,3.5754819 L12.5720872,3.5754819 Z" id="Path" fill="#000000"></path>
                        <polyline id="Path" fill="#FFFFFF" points="3.33866267 21.4443471 3.33427777 21.4381726 7.87878788 28.7575758 1.96969697 19.6969697"></polyline>
                    </g>
                </g>
            </g>
        </g>
    </g>
</svg>