<?xml version="1.0" encoding="UTF-8"?>
<svg width="290px" height="333px" viewBox="0 0 290 333" version="1.1" xmlns="http://www.w3.org/2000/svg" xmlns:xlink="http://www.w3.org/1999/xlink">
    <title>Fichier 3</title>
    <g id="Page-1" stroke="none" stroke-width="1" fill="none" fill-rule="evenodd">
        <g id="Large-Devices:-Desktops---12-col" transform="translate(-367.000000, -229.000000)" fill="#000000" fill-rule="nonzero">
            <g id="header" transform="translate(0.000000, -0.000000)">
                <g id="Fichier-3" transform="translate(367.000000, 229.000000)">
                    <path d="M142.260567,2.73306359 L142.260567,166.614845 C142.260567,167.576883 142.786538,168.495192 143.619326,168.976212 C185.214872,192.939713 226.810419,216.888638 268.405965,240.85214 L285.879893,250.909814 L285.879893,246.18708 C244.43045,270.063124 202.981007,293.939167 161.531563,317.815211 L149.667993,324.651514 C149.03975,325.015922 144.013804,327.216949 143.926142,327.960343 C143.867701,328.485091 146.17613,328.222717 146.161519,328.004072 C146.146909,327.727121 144.232959,326.925423 143.999194,326.765083 C141.237846,324.899312 138.155071,323.397949 135.26223,321.736246 L62.0791979,279.581473 C42.764371,268.459726 23.4495441,257.33798 4.13471711,246.201656 L4.13471711,250.92439 C45.5841604,227.048347 87.0336037,203.172303 128.483047,179.29626 L140.346617,172.459957 C140.97486,172.095548 146.000806,169.894521 146.088468,169.151128 C146.146909,168.626379 143.838481,168.888754 143.853091,169.107399 C143.867701,169.384349 145.781651,170.186048 146.015416,170.346387 C148.776765,172.212159 151.85954,173.713522 154.75238,175.375224 C179.151595,189.426815 203.550809,203.478406 227.935412,217.529997 C247.250239,228.651744 266.565066,239.773491 285.879893,250.909814 C287.676961,251.944734 290,250.632864 290,248.548447 L290,84.6812423 C290,83.7192039 289.474029,82.8008945 288.641241,82.3198754 C247.045695,58.3563738 205.450149,34.4074486 163.854602,10.443947 L146.380674,0.371696648 C145.533276,-0.123898883 144.466724,-0.123898883 143.619326,0.371696648 C102.02378,24.3351982 60.4282332,48.2986998 18.8326868,72.247625 C13.003174,75.600183 7.18827145,78.952741 1.35875863,82.305299 C0.525971082,82.7863182 0,83.7046276 0,84.666666 L0,248.548447 C0,252.061345 5.47886543,252.075921 5.47886543,248.548447 L5.47886543,91.6341561 C5.47886543,90.7595757 6.13632929,85.7161624 5.47886543,85.0893798 C4.82140158,84.4625972 3.87173157,86.6490481 4.35387173,86.8968458 C4.60224696,87.0134566 6.25321175,85.7744677 6.51619729,85.657857 C9.51131039,84.2147994 12.3603204,82.2907227 15.2531614,80.62902 C39.6523754,66.5774291 64.0515895,52.5258381 88.4361933,38.4742472 C100.577359,31.4776044 112.718525,24.4955379 124.84508,17.4988952 L137.950526,9.94835147 C140.069021,8.72393898 143.648547,7.49952649 145.328732,5.70663678 C145.927755,5.06527786 147.62255,5.10900687 144.992695,5.10900687 C142.362839,5.10900687 144.159907,5.09443053 144.77354,5.77951847 C146.380674,7.54325551 149.9602,8.767668 152.020253,9.96292781 L182.365862,27.4399585 C208.562144,42.5264695 234.773036,57.6275568 260.969318,72.7140679 C268.405965,76.9995116 275.813391,82.2032646 283.629906,85.7744677 C283.878281,85.8910784 285.310091,86.9843039 285.558466,86.8822695 C285.850673,86.7510825 285.003275,84.7249713 284.506524,85.1185325 C283.863671,85.6287043 284.506524,91.1822896 284.506524,91.9839882 L284.506524,248.5776 L288.626631,246.216233 C246.607386,222.01951 204.58814,197.80821 162.568895,173.611487 C157.776714,170.856559 151.830319,165.79857 146.439115,164.311783 C142.508943,163.233134 137.117739,168.014173 133.888861,169.879945 C109.445816,183.960688 85.0027709,198.041432 60.5451156,212.122175 C40.8212001,223.49172 21.0826742,234.846688 1.35875863,246.216233 C-0.423698927,247.236577 -0.423698927,249.918623 1.35875863,250.938967 C43.3780039,275.13569 85.3972492,299.346989 127.416495,323.543712 C132.208676,326.29864 138.155071,331.35663 143.546274,332.843416 C147.476447,333.922065 152.867651,329.141026 156.096529,327.275255 C180.539574,313.194511 204.982619,299.113768 229.440274,285.033024 L288.626631,250.938967 C290.409089,249.918623 290.409089,247.236577 288.626631,246.216233 C247.177188,222.340189 205.727744,198.464146 164.278301,174.588102 L152.414731,167.751799 C151.801098,167.401967 147.330344,164.151443 146.67288,164.44297 C146.20535,164.647039 147.534888,166.483658 147.724822,166.352471 C147.943977,166.206707 147.710212,164.151443 147.724822,163.859917 C147.958587,160.536511 147.724822,157.125648 147.724822,153.802243 L147.724822,2.73306359 C147.724822,-0.779834145 142.245957,-0.794410484 142.245957,2.73306359 L142.245957,2.73306359 L142.260567,2.73306359 Z" id="Path"></path>
                </g>
            </g>
        </g>
    </g>
</svg>