<?xml version="1.0" encoding="UTF-8"?>
<svg width="41px" height="31px" viewBox="0 0 41 31" version="1.1" xmlns="http://www.w3.org/2000/svg" xmlns:xlink="http://www.w3.org/1999/xlink">
    <title>Group 9</title>
    <g id="Page-1" stroke="none" stroke-width="1" fill="none" fill-rule="evenodd">
        <g id="Large-Devices:-Desktops---12-col" transform="translate(-590.000000, -2624.000000)">
            <g id="footer" transform="translate(-11.000000, 2322.000000)">
                <g id="Group-9" transform="translate(602.000000, 303.000000)">
                    <path d="M37.4081633,21.1270869 C37.4081633,24.5805995 34.6431429,27.3896497 31.2445714,27.3896497 L7.75542857,27.3896497 C4.35685714,27.3896497 1.59183673,24.5797939 1.59183673,21.1270869 L1.59183673,7.87371871 C1.59183673,4.42101169 4.35685714,1.61115587 7.75542857,1.61115587 L31.2445714,1.61115587 C34.6431429,1.61115587 37.4081633,4.42101169 37.4081633,7.87371871 L37.4081633,21.1270869 Z M31.2445714,0 L7.75542857,0 C3.47895918,0 0,3.53245923 0,7.87371871 L0,21.1262813 C0,25.4683463 3.47895918,29 7.75542857,29 L31.2445714,29 C35.5210408,29 39,25.4675408 39,21.1262813 L39,7.87371871 C39,3.53245923 35.5210408,0 31.2445714,0 L31.2445714,0 Z" id="Fill-1" fill="#000000"></path>
                    <path d="M37.4081633,21.1270869 C37.4081633,24.5805995 34.6431429,27.3896497 31.2445714,27.3896497 L7.75542857,27.3896497 C4.35685714,27.3896497 1.59183673,24.5797939 1.59183673,21.1270869 L1.59183673,7.87371871 C1.59183673,4.42101169 4.35685714,1.61115587 7.75542857,1.61115587 L31.2445714,1.61115587 C34.6431429,1.61115587 37.4081633,4.42101169 37.4081633,7.87371871 L37.4081633,21.1270869 Z M31.2445714,0 L7.75542857,0 C3.47895918,0 0,3.53245923 0,7.87371871 L0,21.1262813 C0,25.4683463 3.47895918,29 7.75542857,29 L31.2445714,29 C35.5210408,29 39,25.4675408 39,21.1262813 L39,7.87371871 C39,3.53245923 35.5210408,0 31.2445714,0 Z" id="Stroke-3" stroke="#000000" stroke-width="1.5"></path>
                    <path d="M16.5137181,19.7412076 L16.5137181,9.25777761 L24.7453169,14.5003155 L16.5137181,19.7412076 Z M26.6253548,13.7901742 L16.1390728,7.11254197 C15.9059603,6.96442444 15.6160833,6.96195581 15.3807001,7.1084276 C15.1453169,7.25489938 15,7.52727107 15,7.82268327 L15,21.1771248 C15,21.4717141 15.1453169,21.7449087 15.3799432,21.8913805 C15.4964995,21.9637935 15.6266793,22 15.756859,22 C15.8893094,22 16.0210028,21.9621477 16.1390728,21.8872661 L26.6253548,15.2112796 C26.8569536,15.063985 27,14.793259 27,14.5011383 C27,14.2090177 26.8577105,13.9374688 26.6253548,13.7901742 L26.6253548,13.7901742 Z" id="Fill-5" fill="#000000"></path>
                    <path d="M16.5137181,19.7412076 L16.5137181,9.25777761 L24.7453169,14.5003155 L16.5137181,19.7412076 Z M26.6253548,13.7901742 L16.1390728,7.11254197 C15.9059603,6.96442444 15.6160833,6.96195581 15.3807001,7.1084276 C15.1453169,7.25489938 15,7.52727107 15,7.82268327 L15,21.1771248 C15,21.4717141 15.1453169,21.7449087 15.3799432,21.8913805 C15.4964995,21.9637935 15.6266793,22 15.756859,22 C15.8893094,22 16.0210028,21.9621477 16.1390728,21.8872661 L26.6253548,15.2112796 C26.8569536,15.063985 27,14.793259 27,14.5011383 C27,14.2090177 26.8577105,13.9374688 26.6253548,13.7901742 Z" id="Stroke-7" stroke="#000000" stroke-width="1.5"></path>
                </g>
            </g>
        </g>
    </g>
</svg>